# simple OBJ generated for Unity
v 0.350000 -0.150000 0.000000
v 0.303109 -0.150000 0.175000
v 0.175000 -0.150000 0.303109
v 0.000000 -0.150000 0.350000
v -0.175000 -0.150000 0.303109
v -0.303109 -0.150000 0.175000
v -0.350000 -0.150000 0.000000
v -0.303109 -0.150000 -0.175000
v -0.175000 -0.150000 -0.303109
v -0.000000 -0.150000 -0.350000
v 0.175000 -0.150000 -0.303109
v 0.303109 -0.150000 -0.175000
v 0.350000 0.150000 0.000000
v 0.303109 0.150000 0.175000
v 0.175000 0.150000 0.303109
v 0.000000 0.150000 0.350000
v -0.175000 0.150000 0.303109
v -0.303109 0.150000 0.175000
v -0.350000 0.150000 0.000000
v -0.303109 0.150000 -0.175000
v -0.175000 0.150000 -0.303109
v -0.000000 0.150000 -0.350000
v 0.175000 0.150000 -0.303109
v 0.303109 0.150000 -0.175000
v 0.000000 -0.150000 0.000000
v 0.000000 0.150000 0.000000
f 1 13 14
f 1 14 2
f 2 14 15
f 2 15 3
f 3 15 16
f 3 16 4
f 4 16 17
f 4 17 5
f 5 17 18
f 5 18 6
f 6 18 19
f 6 19 7
f 7 19 20
f 7 20 8
f 8 20 21
f 8 21 9
f 9 21 22
f 9 22 10
f 10 22 23
f 10 23 11
f 11 23 24
f 11 24 12
f 12 24 13
f 12 13 1
f 25 2 1
f 25 3 2
f 25 4 3
f 25 5 4
f 25 6 5
f 25 7 6
f 25 8 7
f 25 9 8
f 25 10 9
f 25 11 10
f 25 12 11
f 25 1 12
f 26 13 14
f 26 14 15
f 26 15 16
f 26 16 17
f 26 17 18
f 26 18 19
f 26 19 20
f 26 20 21
f 26 21 22
f 26 22 23
f 26 23 24
f 26 24 13
